<?xml version="1.0" standalone="no"?>
<!DOCTYPE svg PUBLIC "-//W3C//DTD SVG 20010904//EN"
 "http://www.w3.org/TR/2001/REC-SVG-20010904/DTD/svg10.dtd">
<svg version="1.0" xmlns="http://www.w3.org/2000/svg"
 width="512.000000pt" height="512.000000pt" viewBox="0 0 512.000000 512.000000"
 preserveAspectRatio="xMidYMid meet">

<g transform="translate(0.000000,512.000000) scale(0.100000,-0.100000)"
fill="#000000" stroke="none">
<path d="M3702 5109 c-284 -47 -540 -257 -647 -529 -74 -188 -73 -421 2 -608
14 -35 23 -65 21 -66 -1 -2 -273 -177 -603 -390 -384 -249 -604 -385 -611
-380 -6 5 -38 30 -70 57 -247 199 -602 234 -894 86 -225 -113 -395 -337 -446
-588 -22 -110 -15 -284 15 -389 80 -279 295 -494 581 -584 65 -20 95 -23 230
-23 135 0 165 3 230 23 108 34 207 85 284 147 l68 54 96 -63 c721 -467 1078
-699 1085 -706 4 -4 -2 -40 -13 -81 -30 -104 -38 -280 -16 -385 35 -175 108
-309 240 -439 232 -229 546 -302 856 -199 123 41 215 99 316 199 183 181 263
384 251 634 -12 246 -113 453 -298 609 -297 250 -743 260 -1051 22 -64 -49
-69 -51 -90 -38 -13 8 -275 178 -583 378 -308 199 -565 367 -572 374 -9 8 -7
27 8 81 29 99 36 286 15 385 -9 41 -19 86 -22 100 -5 23 33 49 606 420 337
217 616 397 621 398 5 2 34 -13 65 -33 305 -203 723 -179 1003 57 185 156 286
363 298 609 9 178 -26 316 -119 473 -56 97 -201 239 -298 293 -171 96 -373
133 -558 102z m283 -389 c287 -99 410 -437 250 -691 -156 -246 -508 -290 -714
-90 -252 246 -166 655 164 778 81 30 217 31 300 3z m-2572 -1746 c76 -21 143
-63 202 -125 284 -297 76 -783 -335 -783 -132 0 -239 44 -330 134 -179 180
-181 465 -5 649 123 129 294 175 468 125z m2518 -1674 c239 -45 407 -285 369
-527 -36 -230 -227 -393 -460 -393 -184 0 -344 101 -421 265 -162 345 136 725
512 655z"/>
</g>
</svg>
